<svg width="100" height="100" viewBox="0 0 100 100" fill="none" xmlns="http://www.w3.org/2000/svg">
<path d="M100 50C100 37.1983 95.1279 24.3966 85.3822 14.6552C75.9815 5.17241 63.3898 0 50.0219 0C36.654 0 24.0623 5.17241 14.6616 14.6552C4.91594 24.3966 0 37.2414 0 50C0 62.8448 4.91594 75.6034 14.6616 85.3448C24.1485 94.8276 36.654 100 50.0219 100C63.3898 100 75.9815 94.8276 85.3822 85.3448C95.1279 75.6034 100 62.8017 100 50ZM94.8691 50C94.8691 61.4655 90.4713 72.9317 81.7606 81.7248C73.2224 90.1731 62.0099 94.8276 50.0219 94.8276C38.0339 94.8276 26.8214 90.1731 18.2832 81.7248C0.775528 64.2248 0.775528 35.7765 18.2832 18.3627C26.8214 9.82826 38.0339 5.17241 50.0219 5.17241C62.0099 5.17241 73.2224 9.82691 81.7606 18.2752C90.4713 27.0683 94.8691 38.5345 94.8691 50ZM65.5459 54.2784C65.5459 53.621 65.2869 52.9745 64.7694 52.5003C63.7345 51.4659 62.0965 51.4659 61.1478 52.5003L52.6092 61.0352L52.6092 34.4828C52.6092 33.0172 51.4881 31.8966 50.0219 31.8966C48.5557 31.8966 47.4346 33.0172 47.4346 34.4828L47.4346 61.0352L38.896 52.5003C37.8611 51.4659 36.2231 51.4659 35.2744 52.5003C34.7569 53.0176 34.4979 53.7069 34.4979 54.3103C34.4979 54.9138 34.7569 55.6031 35.2744 56.1204L48.2111 69.0514C49.246 70.0859 50.884 70.0859 51.8327 69.0514L64.7694 56.1204C65.2869 55.6031 65.5459 54.9357 65.5459 54.2784Z" fill="#94A89A"/>
</svg>
