<svg width="120" height="120" viewBox="0 0 120 120" fill="none" xmlns="http://www.w3.org/2000/svg">
<mask id="mask0" mask-type="alpha" maskUnits="userSpaceOnUse" x="0" y="0" width="120" height="120">
<rect width="120" height="120" fill="#C4C4C4"/>
</mask>
<g mask="url(#mask0)">
<path d="M101.203 99H86.3105V67.1152C86.3105 59.2376 83.3809 55.2988 77.5215 55.2988C73.3548 55.2988 70.3438 56.7148 68.4883 59.5469C66.6328 62.3789 65.7051 66.9688 65.7051 73.3164V99H50.8125V23.0234H65.7051V38.502C65.7051 39.7064 65.5911 42.5384 65.3633 46.998L65.0215 51.3926H65.8027C69.123 46.054 74.3965 43.3848 81.623 43.3848C88.0358 43.3848 92.9023 45.11 96.2227 48.5605C99.543 52.0111 101.203 56.959 101.203 63.4043V99Z" fill="#94A89A"/>
<path d="M8.98438 99V27.6133H24.1211V86.5H53.0762V99H8.98438Z" fill="#94A89A"/>
</g>
</svg>
