<?xml version="1.0" encoding="UTF-8"?>
<svg xmlns="http://www.w3.org/2000/svg" xmlns:xlink="http://www.w3.org/1999/xlink" width="48pt" height="48pt" viewBox="0 0 48 48" version="1.1">
<g id="surface1353868">
<path style=" stroke:none;fill-rule:nonzero;fill:rgb(0%,0%,0%);fill-opacity:1;" d="M 43.601562 0 L 4.398438 0 C 2 0 0 2 0 4.398438 L 0 43.601562 C 0 46 2 48 4.398438 48 L 43.601562 48 C 46 48 48 46 48 43.601562 L 48 4.398438 C 48 2 46 0 43.601562 0 Z M 14 40 L 6 40 L 6 18 L 14 18 Z M 10 15.398438 C 7.601562 15.398438 6 13.796875 6 11.796875 C 6 9.601562 7.601562 8 10 8 C 12.398438 8 14 9.601562 14 11.601562 C 14 13.796875 12.398438 15.398438 10 15.398438 Z M 42 40 L 34 40 L 34 28 C 34 24.796875 31.796875 24 31.203125 24 C 30.601562 24 28 24.398438 28 28 C 28 28.398438 28 40 28 40 L 20 40 L 20 18 L 28 18 L 28 21.203125 C 29.203125 19.398438 31.203125 18 35 18 C 38.796875 18 42 21 42 28 Z M 42 40 "/>
</g>
</svg>
